<svg aria-hidden="true" style="position: absolute; width: 0; height: 0; overflow: hidden;" version="1.1" xmlns="http://www.w3.org/2000/svg" xmlns:xlink="http://www.w3.org/1999/xlink">
<defs>
<symbol id="logo" viewBox="0 0 32 32">
<path fill="#16151b" style="fill: var(--color1, #16151b); stroke: var(--color2, #6c38cc)" stroke="#6c38cc" stroke-linejoin="miter" stroke-linecap="butt" stroke-miterlimit="4" stroke-width="1.92" d="M3.104 8.554l12.896-7.446 12.896 7.446v14.892l-12.896 7.446-12.896-7.446v-14.892z"></path>
<path fill="#fff" style="fill: var(--color3, #fff)" d="M11.53 13.739l4.455 4.883-0.281 0.304-7.628-4.86v-0.641l7.628-4.871 0.281 0.304-4.455 4.883z"></path>
<path fill="#fff" style="fill: var(--color3, #fff)" d="M20.47 18.261l-4.455-4.883 0.281-0.304 7.628 4.86v0.641l-7.628 4.871-0.281-0.304 4.455-4.883z"></path>
</symbol>
<symbol id="play" viewBox="0 0 27 32">
<path fill="#fff" style="fill: var(--color3, #fff)" d="M1.244 0.311c0.377-0.213 0.803-0.321 1.234-0.311s0.85 0.135 1.217 0.364c0.001 0.001 0.002 0.001 0.002 0.001l21.795 13.533c0.356 0.216 0.652 0.522 0.857 0.888 0.207 0.369 0.317 0.787 0.317 1.212s-0.109 0.843-0.317 1.212c-0.206 0.366-0.501 0.672-0.857 0.888l-21.795 13.533c-0.001 0.001-0.002 0.001-0.003 0.002-0.366 0.229-0.786 0.355-1.217 0.364-0.431 0.010-0.857-0.098-1.234-0.311s-0.691-0.525-0.909-0.902c-0.219-0.378-0.334-0.807-0.335-1.245v-27.082c0-0.438 0.116-0.868 0.335-1.245s0.533-0.689 0.909-0.902zM24.867 14.954l-0.625 1.038 0.008-0.005c-0.002 0.001-0.004 0.003-0.005 0.005s-0.002 0.005-0.002 0.008 0.001 0.005 0.002 0.008c0.001 0.002 0.003 0.004 0.005 0.006l0.617-1.059zM24.228 16l-21.803-13.538v27.076l0.004-0.003 21.799-13.536z"></path>
</symbol>
</defs>
</svg>
